<svg width="835" height="207" fill="none" xmlns="http://www.w3.org/2000/svg"><path d="M32.136 2.4H.168L31.272 204h47.232L109.608 2.4H80.52L56.328 166.848 32.136 2.4zm138.339 28.8h54.72V2.4h-86.4V204h86.4v-28.8h-54.72v-59.04h43.488v-28.8h-43.488V31.2zM326.906 204h32.544V2.4h-28.224v120.672L298.682 2.4h-39.744V204h28.512V57.984L326.906 204zm98.715-155.232c0-14.4 6.336-19.872 16.416-19.872s16.416 5.472 16.416 19.872v108.864c0 14.4-6.336 19.872-16.416 19.872s-16.416-5.472-16.416-19.872V48.768zm-31.68 106.848c0 32.256 16.992 50.688 48.096 50.688 31.104 0 48.096-18.432 48.096-50.688V50.784c0-32.256-16.992-50.688-48.096-50.688-31.104 0-48.096 18.432-48.096 50.688v104.832zM568.896 2.4h-44.064V204h27.648V61.44L576.096 204h29.952l21.888-144.576V204h29.952V2.4h-44.064l-21.6 143.136L568.896 2.4zm233.939 49.536c0 58.176-62.784 67.968-62.784 127.296V204h91.584v-28.8h-59.904c-.288-1.44-.288-2.88-.288-4.32 0-33.12 63.072-56.736 63.072-120.096 0-32.256-16.128-50.688-47.232-50.688s-47.232 18.432-47.232 50.688v19.584h29.952v-21.6c0-14.4 6.336-19.872 16.416-19.872s16.416 4.896 16.416 23.04z" fill="#EFE8F4"/></svg>